<svg xmlns="http://www.w3.org/2000/svg" xmlns:xlink="http://www.w3.org/1999/xlink" width="1080" zoomAndPan="magnify" viewBox="0 0 810 809.999993" height="1080" preserveAspectRatio="xMidYMid meet" version="1.0"><defs><g/></defs><g fill="#b3735a" fill-opacity="1"><g transform="translate(81.802953, 424.992303)"><g><path d="M 16.703125 0 L 3.296875 0 L 3.34375 -0.546875 L 4.015625 -0.546875 C 4.960938 -0.546875 5.773438 -0.875 6.453125 -1.53125 C 7.128906 -2.195312 7.488281 -3.003906 7.53125 -3.953125 L 7.53125 -34.5 C 7.53125 -35.445312 7.179688 -36.25 6.484375 -36.90625 C 5.785156 -37.570312 4.960938 -37.90625 4.015625 -37.90625 L 3.34375 -37.90625 L 3.296875 -38.453125 L 14.234375 -38.453125 C 18.003906 -38.453125 20.929688 -37.617188 23.015625 -35.953125 C 25.109375 -34.285156 26.15625 -32.0625 26.15625 -29.28125 C 26.15625 -27.082031 25.566406 -25.257812 24.390625 -23.8125 C 23.222656 -22.363281 21.796875 -21.40625 20.109375 -20.9375 C 23.003906 -20.488281 25.289062 -19.296875 26.96875 -17.359375 C 28.65625 -15.421875 29.5 -12.976562 29.5 -10.03125 C 29.5 -7.082031 28.375 -4.671875 26.125 -2.796875 C 23.875 -0.929688 20.734375 0 16.703125 0 Z M 11.09375 -1.984375 L 16.484375 -1.984375 C 16.515625 -1.984375 16.550781 -1.984375 16.59375 -1.984375 C 19.375 -1.984375 21.53125 -2.738281 23.0625 -4.25 C 24.601562 -5.769531 25.375 -7.925781 25.375 -10.71875 C 25.375 -12.289062 25.109375 -13.671875 24.578125 -14.859375 C 24.046875 -16.046875 23.378906 -16.988281 22.578125 -17.6875 C 20.453125 -19.445312 17.265625 -20.328125 13.015625 -20.328125 C 13.015625 -20.328125 13 -20.328125 12.96875 -20.328125 L 12.96875 -20.828125 C 13 -20.828125 13.171875 -20.828125 13.484375 -20.828125 C 13.796875 -20.828125 14.242188 -20.863281 14.828125 -20.9375 C 15.421875 -21.007812 16.082031 -21.132812 16.8125 -21.3125 C 17.539062 -21.5 18.195312 -21.789062 18.78125 -22.1875 C 19.375 -22.59375 19.925781 -23.070312 20.4375 -23.625 C 21.5 -24.832031 22.03125 -26.632812 22.03125 -29.03125 C 22.03125 -31.4375 21.34375 -33.316406 19.96875 -34.671875 C 18.59375 -36.023438 16.609375 -36.703125 14.015625 -36.703125 L 11.09375 -36.703125 Z M 11.09375 -1.984375 "/></g></g></g><g fill="#b3735a" fill-opacity="1"><g transform="translate(113.996349, 424.992303)"><g><path d="M 14.609375 -36.75 L 11.09375 -36.75 L 11.09375 -4.015625 C 11.09375 -3.054688 11.429688 -2.238281 12.109375 -1.5625 C 12.785156 -0.882812 13.617188 -0.546875 14.609375 -0.546875 L 15.265625 -0.546875 L 15.328125 0 L 3.296875 0 L 3.296875 -0.546875 L 4.015625 -0.546875 C 4.960938 -0.546875 5.773438 -0.875 6.453125 -1.53125 C 7.128906 -2.195312 7.488281 -3.003906 7.53125 -3.953125 L 7.53125 -34.453125 C 7.488281 -35.398438 7.128906 -36.210938 6.453125 -36.890625 C 5.773438 -37.566406 4.960938 -37.90625 4.015625 -37.90625 L 3.296875 -37.90625 L 3.296875 -38.453125 L 18.125 -38.453125 C 21.457031 -38.453125 24.078125 -37.523438 25.984375 -35.671875 C 27.890625 -33.828125 28.84375 -31.429688 28.84375 -28.484375 C 28.84375 -25.535156 27.9375 -22.988281 26.125 -20.84375 C 24.3125 -18.707031 22.101562 -17.640625 19.5 -17.640625 C 20.050781 -17.378906 20.703125 -16.875 21.453125 -16.125 C 22.203125 -15.375 22.867188 -14.597656 23.453125 -13.796875 C 26.609375 -9.285156 28.660156 -6.507812 29.609375 -5.46875 C 30.566406 -4.425781 31.242188 -3.710938 31.640625 -3.328125 C 32.046875 -2.941406 32.484375 -2.5625 32.953125 -2.1875 C 33.429688 -1.820312 33.910156 -1.53125 34.390625 -1.3125 C 35.453125 -0.800781 36.585938 -0.546875 37.796875 -0.546875 L 37.796875 0 L 34.78125 0 C 33.195312 0 31.726562 -0.28125 30.375 -0.84375 C 29.019531 -1.414062 28.003906 -2.003906 27.328125 -2.609375 C 26.648438 -3.210938 26.0625 -3.796875 25.5625 -4.359375 C 25.070312 -4.929688 23.707031 -6.828125 21.46875 -10.046875 C 19.238281 -13.273438 17.941406 -15.117188 17.578125 -15.578125 C 17.210938 -16.035156 16.828125 -16.484375 16.421875 -16.921875 C 15.253906 -18.160156 14.082031 -18.78125 12.90625 -18.78125 L 12.90625 -19.34375 C 13.195312 -19.300781 13.582031 -19.28125 14.0625 -19.28125 C 14.539062 -19.28125 15.128906 -19.300781 15.828125 -19.34375 C 20.367188 -19.445312 23.222656 -21.347656 24.390625 -25.046875 C 24.609375 -25.785156 24.71875 -26.472656 24.71875 -27.109375 C 24.71875 -27.753906 24.71875 -28.164062 24.71875 -28.34375 C 24.644531 -30.800781 24.003906 -32.78125 22.796875 -34.28125 C 21.585938 -35.78125 19.957031 -36.585938 17.90625 -36.703125 C 17.03125 -36.734375 15.929688 -36.75 14.609375 -36.75 Z M 14.609375 -36.75 "/></g></g></g><g fill="#b3735a" fill-opacity="1"><g transform="translate(151.189061, 424.992303)"><g><path d="M 40.375 -37.90625 L 39.5 -37.90625 C 38.726562 -37.90625 38.054688 -37.65625 37.484375 -37.15625 C 36.921875 -36.664062 36.625 -36.054688 36.59375 -35.328125 L 36.59375 -13.5625 C 36.59375 -9.28125 35.234375 -5.820312 32.515625 -3.1875 C 29.804688 -0.550781 26.195312 0.765625 21.6875 0.765625 C 17.1875 0.765625 13.535156 -0.539062 10.734375 -3.15625 C 7.929688 -5.78125 6.53125 -9.234375 6.53125 -13.515625 L 6.53125 -35.15625 C 6.53125 -36.257812 6.054688 -37.066406 5.109375 -37.578125 C 4.671875 -37.796875 4.175781 -37.90625 3.625 -37.90625 L 2.75 -37.90625 L 2.75 -38.453125 L 13.90625 -38.453125 L 13.90625 -37.90625 L 13.015625 -37.90625 C 12.210938 -37.90625 11.535156 -37.65625 10.984375 -37.15625 C 10.429688 -36.664062 10.140625 -36.035156 10.109375 -35.265625 L 10.109375 -14.28125 C 10.109375 -10.289062 11.175781 -7.066406 13.3125 -4.609375 C 15.457031 -2.160156 18.320312 -0.9375 21.90625 -0.9375 C 25.5 -0.9375 28.410156 -2.097656 30.640625 -4.421875 C 32.878906 -6.742188 34 -9.789062 34 -13.5625 L 34 -35.265625 C 33.96875 -36.035156 33.675781 -36.664062 33.125 -37.15625 C 32.570312 -37.65625 31.894531 -37.90625 31.09375 -37.90625 L 30.21875 -37.90625 L 30.21875 -38.453125 L 40.375 -38.453125 Z M 40.375 -37.90625 "/></g></g></g><g fill="#b3735a" fill-opacity="1"><g transform="translate(194.315032, 424.992303)"><g><path d="M 3.34375 -2.25 C 3.238281 -2.757812 3.1875 -3.75 3.1875 -5.21875 C 3.1875 -6.6875 3.460938 -8.242188 4.015625 -9.890625 L 4.5 -9.890625 C 4.46875 -9.484375 4.453125 -9.082031 4.453125 -8.6875 C 4.453125 -6.445312 5.128906 -4.582031 6.484375 -3.09375 C 7.835938 -1.613281 9.628906 -0.875 11.859375 -0.875 C 14.171875 -0.875 16.066406 -1.566406 17.546875 -2.953125 C 19.035156 -4.347656 19.78125 -6.097656 19.78125 -8.203125 C 19.78125 -10.316406 19.066406 -12.03125 17.640625 -13.34375 L 7.09375 -23.125 C 5.113281 -24.957031 4.125 -27.171875 4.125 -29.765625 C 4.125 -32.367188 4.992188 -34.59375 6.734375 -36.4375 C 8.472656 -38.289062 10.828125 -39.21875 13.796875 -39.21875 C 15.179688 -39.21875 16.753906 -39.035156 18.515625 -38.671875 L 20.65625 -38.671875 L 20.65625 -31.921875 L 20.15625 -31.921875 C 20.15625 -33.640625 19.5625 -35.007812 18.375 -36.03125 C 17.1875 -37.0625 15.65625 -37.578125 13.78125 -37.578125 C 11.914062 -37.578125 10.351562 -36.953125 9.09375 -35.703125 C 7.832031 -34.460938 7.203125 -32.90625 7.203125 -31.03125 C 7.203125 -29.164062 7.929688 -27.554688 9.390625 -26.203125 L 20.21875 -16.203125 C 22.050781 -14.515625 22.96875 -12.207031 22.96875 -9.28125 C 22.96875 -6.351562 22.03125 -3.945312 20.15625 -2.0625 C 18.289062 -0.175781 15.800781 0.765625 12.6875 0.765625 C 11.070312 0.765625 9.359375 0.515625 7.546875 0.015625 C 5.734375 -0.472656 4.332031 -1.226562 3.34375 -2.25 Z M 3.34375 -2.25 "/></g></g></g><g fill="#b3735a" fill-opacity="1"><g transform="translate(220.410364, 424.992303)"><g><path d="M 22.90625 0.765625 C 17.125 0.734375 12.410156 -1.109375 8.765625 -4.765625 C 5.117188 -8.429688 3.296875 -13.257812 3.296875 -19.25 C 3.296875 -25.238281 5.117188 -30.0625 8.765625 -33.71875 C 12.410156 -37.382812 17.234375 -39.21875 23.234375 -39.21875 C 28.140625 -39.21875 32.484375 -37.972656 36.265625 -35.484375 L 37.359375 -27.75 L 36.859375 -27.75 C 36.054688 -30.894531 34.425781 -33.316406 31.96875 -35.015625 C 29.519531 -36.722656 26.609375 -37.578125 23.234375 -37.578125 C 18.441406 -37.578125 14.609375 -35.910156 11.734375 -32.578125 C 8.859375 -29.242188 7.421875 -24.828125 7.421875 -19.328125 C 7.421875 -13.835938 8.835938 -9.414062 11.671875 -6.0625 C 14.515625 -2.71875 18.257812 -0.988281 22.90625 -0.875 C 27.007812 -0.875 30.4375 -1.992188 33.1875 -4.234375 C 36.144531 -6.648438 37.9375 -10.585938 38.5625 -16.046875 L 39 -16.046875 L 38.34375 -7.421875 C 35.007812 -1.960938 29.863281 0.765625 22.90625 0.765625 Z M 22.90625 0.765625 "/></g></g></g><g fill="#b3735a" fill-opacity="1"><g transform="translate(262.162894, 424.992303)"><g><path d="M 30.046875 -0.546875 C 31.003906 -0.546875 31.820312 -0.875 32.5 -1.53125 C 33.175781 -2.195312 33.53125 -3.003906 33.5625 -3.953125 L 33.5625 -18.1875 L 11.09375 -18.1875 L 11.09375 -4.015625 C 11.09375 -3.054688 11.441406 -2.238281 12.140625 -1.5625 C 12.835938 -0.882812 13.660156 -0.546875 14.609375 -0.546875 L 15.328125 -0.546875 L 15.328125 0 L 3.296875 0 L 3.296875 -0.546875 L 4.015625 -0.546875 C 4.960938 -0.546875 5.773438 -0.882812 6.453125 -1.5625 C 7.128906 -2.238281 7.488281 -3.054688 7.53125 -4.015625 L 7.53125 -34.5 C 7.488281 -35.445312 7.128906 -36.25 6.453125 -36.90625 C 5.773438 -37.570312 4.960938 -37.90625 4.015625 -37.90625 L 3.296875 -37.90625 L 3.296875 -38.453125 L 15.328125 -38.453125 L 15.328125 -37.90625 L 14.609375 -37.90625 C 13.660156 -37.90625 12.847656 -37.570312 12.171875 -36.90625 C 11.492188 -36.25 11.132812 -35.445312 11.09375 -34.5 L 11.09375 -19.828125 L 33.5625 -19.828125 L 33.5625 -34.5 C 33.53125 -35.820312 32.945312 -36.8125 31.8125 -37.46875 C 31.257812 -37.757812 30.671875 -37.90625 30.046875 -37.90625 L 29.34375 -37.90625 L 29.34375 -38.453125 L 41.375 -38.453125 L 41.375 -37.90625 L 40.65625 -37.90625 C 39.695312 -37.90625 38.878906 -37.566406 38.203125 -36.890625 C 37.523438 -36.210938 37.171875 -35.398438 37.140625 -34.453125 L 37.140625 -4.015625 C 37.171875 -3.054688 37.523438 -2.238281 38.203125 -1.5625 C 38.878906 -0.882812 39.695312 -0.546875 40.65625 -0.546875 L 41.375 -0.546875 L 41.375 0 L 29.34375 0 L 29.34375 -0.546875 Z M 30.046875 -0.546875 "/></g></g></g><g fill="#b3735a" fill-opacity="1"><g transform="translate(306.827111, 424.992303)"><g><path d="M 4.015625 -0.546875 C 4.960938 -0.546875 5.773438 -0.882812 6.453125 -1.5625 C 7.128906 -2.238281 7.488281 -3.054688 7.53125 -4.015625 L 7.53125 -34.5 C 7.488281 -35.445312 7.128906 -36.25 6.453125 -36.90625 C 5.773438 -37.570312 4.960938 -37.90625 4.015625 -37.90625 L 3.296875 -37.90625 L 3.296875 -38.453125 L 15.328125 -38.453125 L 15.328125 -37.90625 L 14.609375 -37.90625 C 13.660156 -37.90625 12.847656 -37.570312 12.171875 -36.90625 C 11.492188 -36.25 11.132812 -35.445312 11.09375 -34.5 L 11.09375 -4.015625 C 11.09375 -3.054688 11.441406 -2.238281 12.140625 -1.5625 C 12.835938 -0.882812 13.660156 -0.546875 14.609375 -0.546875 L 15.328125 -0.546875 L 15.328125 0 L 3.296875 0 L 3.296875 -0.546875 Z M 4.015625 -0.546875 "/></g></g></g><g fill="#b3735a" fill-opacity="1"><g transform="translate(325.400601, 424.992303)"><g/></g></g><g fill="#b3735a" fill-opacity="1"><g transform="translate(321.677331, 426.229304)"><g><path d="M 10.28125 0 L 10.28125 -79.09375 L 42.03125 -79.09375 C 50.21875 -79.09375 56.394531 -77.207031 60.5625 -73.4375 C 64.726562 -69.664062 66.8125 -64.460938 66.8125 -57.828125 C 66.8125 -53.035156 65.59375 -49.101562 63.15625 -46.03125 C 60.726562 -42.96875 57.097656 -40.625 52.265625 -39 L 52.265625 -37.875 C 54.753906 -36.789062 56.765625 -35.179688 58.296875 -33.046875 C 59.828125 -30.921875 61.273438 -27.769531 62.640625 -23.59375 L 70.546875 0 L 54.484375 0 L 46.75 -23.640625 C 45.945312 -26.023438 45.050781 -27.875 44.0625 -29.1875 C 43.070312 -30.5 41.8125 -31.453125 40.28125 -32.046875 C 38.75 -32.648438 36.753906 -32.953125 34.296875 -32.953125 L 25.90625 -32.953125 L 25.90625 0 Z M 40.140625 -45.328125 C 47.710938 -45.328125 51.5 -48.863281 51.5 -55.9375 C 51.5 -63.113281 47.710938 -66.703125 40.140625 -66.703125 L 25.90625 -66.703125 L 25.90625 -45.328125 Z M 40.140625 -45.328125 "/></g></g></g><g fill="#b3735a" fill-opacity="1"><g transform="translate(395.626862, 426.229304)"><g><path d="M 58.96875 -26.453125 L 20.609375 -26.453125 C 21.046875 -21.265625 22.523438 -17.488281 25.046875 -15.125 C 27.566406 -12.757812 31.007812 -11.578125 35.375 -11.578125 C 38.800781 -11.578125 41.578125 -12.21875 43.703125 -13.5 C 45.835938 -14.78125 47.554688 -16.71875 48.859375 -19.3125 L 49.984375 -19.3125 L 59.9375 -12.9375 C 57.988281 -8.75 55.050781 -5.351562 51.125 -2.75 C 47.195312 -0.15625 41.945312 1.140625 35.375 1.140625 C 29.207031 1.140625 23.878906 -0.03125 19.390625 -2.375 C 14.898438 -4.71875 11.4375 -8.207031 9 -12.84375 C 6.570312 -17.476562 5.359375 -23.132812 5.359375 -29.8125 C 5.359375 -36.59375 6.632812 -42.304688 9.1875 -46.953125 C 11.75 -51.609375 15.210938 -55.082031 19.578125 -57.375 C 23.941406 -59.664062 28.847656 -60.8125 34.296875 -60.8125 C 42.734375 -60.8125 49.195312 -58.570312 53.6875 -54.09375 C 58.1875 -49.625 60.4375 -43.0625 60.4375 -34.40625 C 60.4375 -31.269531 60.328125 -28.835938 60.109375 -27.109375 Z M 46.09375 -36.140625 C 45.945312 -40.679688 44.890625 -43.988281 42.921875 -46.0625 C 40.960938 -48.132812 38.085938 -49.171875 34.296875 -49.171875 C 26.722656 -49.171875 22.269531 -44.828125 20.9375 -36.140625 Z M 46.09375 -36.140625 "/></g></g></g><g fill="#b3735a" fill-opacity="1"><g transform="translate(460.488229, 426.229304)"><g><path d="M 8.609375 0 L 8.609375 -59.671875 L 23 -59.671875 L 23 -50.90625 L 24.125 -50.640625 C 27.84375 -57.421875 33.867188 -60.8125 42.203125 -60.8125 C 49.085938 -60.8125 54.144531 -58.9375 57.375 -55.1875 C 60.601562 -51.4375 62.21875 -45.972656 62.21875 -38.796875 L 62.21875 0 L 47.234375 0 L 47.234375 -36.953125 C 47.234375 -40.921875 46.4375 -43.78125 44.84375 -45.53125 C 43.257812 -47.28125 40.71875 -48.15625 37.21875 -48.15625 C 32.925781 -48.15625 29.582031 -46.765625 27.1875 -43.984375 C 24.789062 -41.203125 23.59375 -36.835938 23.59375 -30.890625 L 23.59375 0 Z M 8.609375 0 "/></g></g></g><g fill="#b3735a" fill-opacity="1"><g transform="translate(530.380544, 426.229304)"><g><path d="M 41.171875 -14.234375 L 45.0625 -3.140625 C 43.4375 -1.804688 41.394531 -0.757812 38.9375 0 C 36.488281 0.757812 33.71875 1.140625 30.625 1.140625 C 24.164062 1.140625 19.257812 -0.613281 15.90625 -4.125 C 12.550781 -7.644531 10.875 -12.757812 10.875 -19.46875 L 10.875 -47.828125 L 1.78125 -47.828125 L 1.78125 -59.71875 L 10.875 -59.71875 L 10.875 -71.359375 L 25.859375 -73.796875 L 25.859375 -59.71875 L 42.796875 -59.71875 L 42.796875 -47.828125 L 25.859375 -47.828125 L 25.859375 -20.5625 C 25.859375 -17.601562 26.46875 -15.445312 27.6875 -14.09375 C 28.914062 -12.738281 30.707031 -12.0625 33.0625 -12.0625 C 35.726562 -12.0625 38.050781 -12.785156 40.03125 -14.234375 Z M 41.171875 -14.234375 "/></g></g></g><g fill="#b3735a" fill-opacity="1"><g transform="translate(576.740992, 426.229304)"><g><path d="M 23.265625 1.140625 C 19.441406 1.140625 16.125 0.4375 13.3125 -0.96875 C 10.5 -2.375 8.332031 -4.4375 6.8125 -7.15625 C 5.300781 -9.882812 4.546875 -13.160156 4.546875 -16.984375 C 4.546875 -20.523438 5.300781 -23.492188 6.8125 -25.890625 C 8.332031 -28.285156 10.675781 -30.25 13.84375 -31.78125 C 17.019531 -33.3125 21.171875 -34.492188 26.296875 -35.328125 C 29.867188 -35.898438 32.582031 -36.53125 34.4375 -37.21875 C 36.289062 -37.90625 37.539062 -38.679688 38.1875 -39.546875 C 38.84375 -40.410156 39.171875 -41.507812 39.171875 -42.84375 C 39.171875 -44.757812 38.503906 -46.222656 37.171875 -47.234375 C 35.835938 -48.242188 33.617188 -48.75 30.515625 -48.75 C 27.191406 -48.75 24.03125 -48.007812 21.03125 -46.53125 C 18.039062 -45.050781 15.445312 -43.101562 13.25 -40.6875 L 12.171875 -40.6875 L 5.890625 -50.15625 C 8.921875 -53.507812 12.617188 -56.125 16.984375 -58 C 21.347656 -59.875 26.109375 -60.8125 31.265625 -60.8125 C 39.171875 -60.8125 44.890625 -59.132812 48.421875 -55.78125 C 51.953125 -52.425781 53.71875 -47.664062 53.71875 -41.5 L 53.71875 -15.578125 C 53.71875 -12.910156 54.890625 -11.578125 57.234375 -11.578125 C 58.140625 -11.578125 59.023438 -11.738281 59.890625 -12.0625 L 60.640625 -11.84375 L 61.734375 -1.40625 C 60.898438 -0.863281 59.742188 -0.421875 58.265625 -0.078125 C 56.785156 0.265625 55.160156 0.4375 53.390625 0.4375 C 49.828125 0.4375 47.039062 -0.242188 45.03125 -1.609375 C 43.03125 -2.984375 41.597656 -5.132812 40.734375 -8.0625 L 39.59375 -8.171875 C 36.675781 -1.960938 31.234375 1.140625 23.265625 1.140625 Z M 28.03125 -10.0625 C 31.488281 -10.0625 34.253906 -11.222656 36.328125 -13.546875 C 38.398438 -15.878906 39.4375 -19.117188 39.4375 -23.265625 L 39.4375 -29.328125 L 38.40625 -29.53125 C 37.507812 -28.8125 36.328125 -28.207031 34.859375 -27.71875 C 33.398438 -27.238281 31.300781 -26.765625 28.5625 -26.296875 C 25.320312 -25.753906 22.988281 -24.820312 21.5625 -23.5 C 20.132812 -22.1875 19.421875 -20.320312 19.421875 -17.90625 C 19.421875 -15.34375 20.175781 -13.394531 21.6875 -12.0625 C 23.207031 -10.726562 25.320312 -10.0625 28.03125 -10.0625 Z M 28.03125 -10.0625 "/></g></g></g><g fill="#b3735a" fill-opacity="1"><g transform="translate(639.654884, 426.229304)"><g><path d="M 24.78125 1.140625 C 19.40625 1.140625 15.300781 -0.3125 12.46875 -3.21875 C 9.632812 -6.125 8.21875 -10.535156 8.21875 -16.453125 L 8.21875 -83.640625 L 23.203125 -83.640625 L 23.203125 -17.046875 C 23.203125 -13.398438 24.71875 -11.578125 27.75 -11.578125 C 28.613281 -11.578125 29.535156 -11.722656 30.515625 -12.015625 L 31.265625 -11.796875 L 32.625 -0.265625 C 31.789062 0.160156 30.6875 0.5 29.3125 0.75 C 27.945312 1.007812 26.4375 1.140625 24.78125 1.140625 Z M 24.78125 1.140625 "/></g></g></g><g fill="#b3735a" fill-opacity="1"><g transform="translate(673.951887, 426.229304)"><g><path d="M 27.921875 1.140625 C 23.835938 1.140625 20.097656 0.660156 16.703125 -0.296875 C 13.316406 -1.253906 10.425781 -2.570312 8.03125 -4.25 C 5.632812 -5.925781 3.859375 -7.847656 2.703125 -10.015625 L 11.03125 -18.984375 L 12.171875 -18.984375 C 14.148438 -16.316406 16.492188 -14.316406 19.203125 -12.984375 C 21.910156 -11.648438 24.851562 -10.984375 28.03125 -10.984375 C 30.945312 -10.984375 33.144531 -11.503906 34.625 -12.546875 C 36.101562 -13.597656 36.84375 -15.097656 36.84375 -17.046875 C 36.84375 -18.554688 36.3125 -19.820312 35.25 -20.84375 C 34.1875 -21.875 32.460938 -22.679688 30.078125 -23.265625 L 22.1875 -25.15625 C 16.269531 -26.5625 11.945312 -28.710938 9.21875 -31.609375 C 6.5 -34.515625 5.140625 -38.207031 5.140625 -42.6875 C 5.140625 -46.394531 6.082031 -49.617188 7.96875 -52.359375 C 9.863281 -55.109375 12.535156 -57.203125 15.984375 -58.640625 C 19.429688 -60.085938 23.445312 -60.8125 28.03125 -60.8125 C 33.394531 -60.8125 37.84375 -60.035156 41.375 -58.484375 C 44.914062 -56.929688 47.675781 -54.859375 49.65625 -52.265625 L 41.65625 -43.609375 L 40.578125 -43.609375 C 38.921875 -45.484375 37.050781 -46.851562 34.96875 -47.71875 C 32.894531 -48.582031 30.582031 -49.015625 28.03125 -49.015625 C 22.113281 -49.015625 19.15625 -47.175781 19.15625 -43.5 C 19.15625 -41.945312 19.703125 -40.679688 20.796875 -39.703125 C 21.898438 -38.734375 23.84375 -37.941406 26.625 -37.328125 L 33.96875 -35.703125 C 40.03125 -34.410156 44.457031 -32.328125 47.25 -29.453125 C 50.050781 -26.585938 51.453125 -22.738281 51.453125 -17.90625 C 51.453125 -14.125 50.515625 -10.789062 48.640625 -7.90625 C 46.765625 -5.019531 44.054688 -2.789062 40.515625 -1.21875 C 36.984375 0.351562 32.785156 1.140625 27.921875 1.140625 Z M 27.921875 1.140625 "/></g></g></g></svg>