<?xml version="1.0" encoding="UTF-8"?>
<svg xmlns="http://www.w3.org/2000/svg" version="1.1" viewBox="0 0 647 190.49">
  <defs>
    <style>
      .cls-1 {
        fill: #261d18;
      }
    </style>
  </defs>
  <!-- Generator: Adobe Illustrator 28.7.1, SVG Export Plug-In . SVG Version: 1.2.0 Build 142)  -->
  <g>
    <g id="Capa_1">
      <g>
        <g>
          <polygon class="cls-1" points="1.39 83.65 1.39 134.63 15.4 134.63 15.4 88.51 60.22 57.86 79.08 68.64 79.76 57.19 60.88 44.81 1.39 83.65"/>
          <polygon class="cls-1" points="106.55 84.32 117.39 92.49 116.47 136.1 42.19 136.1 42.19 124.73 106.02 124.73 106.55 84.32"/>
          <polygon class="cls-1" points="22.22 89.59 35.38 82.03 35.38 161.63 22.22 161.63 22.22 89.59"/>
          <path class="cls-1" d="M100.6,141.64h0s-14.87,0-14.87,0v3.07c0,5.45-5.8,9.88-12.96,9.88H21.99v9.71h48.86c16.43,0,29.74-10.14,29.74-22.66Z"/>
          <rect class="cls-1" x="33.26" y="84.46" width="53.39" height="10.52"/>
          <path class="cls-1" d="M86.84,90.1c.09,0,.17-.02.26-.03,8.13-.85,14.14-6.21,14.14-12.46v-31.39c0-11.06-11.77-20.03-26.3-20.03H22.64v.38h-.41v38.59l13.03-9.93v-19.33h34c9.45,0,17.11,5.84,17.11,13.04v71.12h14.87v-18.79c0-5.98-6.19-10.94-14.04-11.16-.23,0-.36,0-.36,0Z"/>
        </g>
        <g>
          <path class="cls-1" d="M210.72,76.25h-11.06V23.57h43.8c18.36.45,20.77,19.87,6.92,25.06,17.08,3.76,15.43,27.62-4.74,27.62l-.08-.08h-34.84v.08ZM244.96,43.89c5.04-1.96,4.29-10.46-2.18-10.46h-32.06v10.46h34.24ZM245.64,53.37h-34.92v12.94h34.92c7.22,0,7.22-12.94,0-12.94Z"/>
          <path class="cls-1" d="M281.38,76.25h-11.06V23.57h44.48c18.51.38,20.77,27.85,5.19,32.36h.08l11.06,20.32h-11.97l-10.91-20.02h-26.87v20.02ZM314.35,33.43h-32.96v13.32h32.96c7.68,0,7.68-13.32,0-13.32Z"/>
          <path class="cls-1" d="M338.12,49.91v-26.34h11.06v26.34c0,14.22,8.65,17.23,19.87,17.23s20.47-3.01,20.47-17.23v-26.34h11.06v26.34c0,22.28-14.45,27.17-31.53,27.17s-30.93-4.89-30.93-27.17Z"/>
          <path class="cls-1" d="M457.25,58.64c0-5.42-8.8-5.19-18.81-5.19-13.02,0-28.07-.38-28.07-14.37,0-10.08,11.21-16.1,27.39-16.1,23.18,0,27.39,10.46,27.39,16.03h-10.99c0-3.46-3.31-6.17-16.41-6.17-12.27,0-16.33,2.78-16.33,6.25,0,10.84,46.88-4.52,46.88,19.72,0,11.44-15.88,18.14-30.55,18.14-15.43,0-30.55-5.12-30.55-17.76h11.06c0,4.74,7.83,7.83,19.49,7.83s19.49-3.09,19.49-8.35Z"/>
          <path class="cls-1" d="M474.26,49.76c0-9.71,1.81-27.17,32.06-27.17,14.38,0,27.17,3.39,31.01,17.61h-12.12c-3.46-6.1-10.84-7.68-18.89-7.68-15.5,0-21,6.47-21,17.23,0,5.87.9,17.23,21,17.23,8.05,0,15.43-1.58,18.89-7.68h12.12c-3.84,14.15-16.63,17.53-31.01,17.53-33.04,0-32.06-21.45-32.06-27.09Z"/>
          <path class="cls-1" d="M556.13,76.4h-11.06V23.72h11.06v21.37h39.73v-21.52h10.99v52.68h-10.99v-21.22h-39.73v21.37Z"/>
          <path class="cls-1" d="M617.46,76.25V23.57h11.06v52.68h-11.06Z"/>
          <path class="cls-1" d="M210.72,152.02h-11.06v-52.68h44.48c18.51.38,20.77,27.84,5.19,32.36h.07l11.06,20.32h-11.96l-10.91-20.02h-26.87v20.02ZM243.68,109.2h-32.96v13.32h32.96c7.68,0,7.68-13.32,0-13.32Z"/>
          <path class="cls-1" d="M279.58,152.02h-11.06v-52.68h55.54v9.86h-44.47v10.84h39.81v9.48h-39.81v12.57h46.73v9.86h-46.73v.08Z"/>
          <path class="cls-1" d="M345.2,152.02h-11.06v-52.68h20.09l30.71,45.53v-45.53h10.99v52.68h-19.49l-31.23-45.91v45.91Z"/>
          <path class="cls-1" d="M427.6,109.2h-25.36v-9.86h61.71v9.86h-25.36v42.82h-10.99v-42.82Z"/>
          <path class="cls-1" d="M469.06,152.02h-12.27l24.91-52.68h18.59l24.98,52.68h-12.27l-5.95-12.57h-32.13l-5.87,12.57ZM479.6,129.59h22.8l-11.36-24.01-11.44,24.01Z"/>
          <path class="cls-1" d="M542.21,152.02h-11.06v-52.68h11.06v42.75h38.83v9.86h-38.83v.08Z"/>
          <path class="cls-1" d="M634.55,134.41c0-5.42-8.8-5.19-18.81-5.19-13.02,0-28.07-.38-28.07-14.37,0-10.08,11.21-16.1,27.39-16.1,23.18,0,27.39,10.46,27.39,16.03h-10.99c0-3.46-3.31-6.17-16.41-6.17-12.27,0-16.33,2.78-16.33,6.25,0,10.84,46.88-4.52,46.88,19.72,0,11.44-15.88,18.14-30.55,18.14-15.43,0-30.55-5.12-30.55-17.76h11.06c0,4.74,7.83,7.83,19.49,7.83s19.49-3.09,19.49-8.35Z"/>
        </g>
        <path class="cls-1" d="M151.39,1.75c2.74,62.04,2.76,124.96,0,187-2.76-62.04-2.74-124.96,0-187h0Z"/>
      </g>
    </g>
  </g>
</svg>